<svg width="32" height="32" viewBox="0 0 32 32" fill="none" xmlns="http://www.w3.org/2000/svg">
<rect width="32" height="32" fill="#F6FAFF"/>
<path fill-rule="evenodd" clip-rule="evenodd" d="M15.7641 9.1878C15.7641 9.1878 15.7641 9.1878 15.7641 9.1878L10.3093 11.8288L16 14.5728L21.6889 11.832L16.2352 9.18793C16.0865 9.11582 15.9129 9.11577 15.7641 9.1878ZM23.7926 11.5608C23.7684 11.5185 23.7404 11.4794 23.7093 11.4439C23.5252 11.2043 23.2855 11.0057 23.0031 10.8689L16.8634 7.8922C16.8634 7.89219 16.8634 7.8922 16.8634 7.8922C16.3182 7.62785 15.6819 7.62768 15.1366 7.89172L8.9933 10.8661C8.9933 10.8661 8.9933 10.8661 8.9933 10.8661C8.70619 11.0051 8.46309 11.2079 8.27771 11.4527C8.25503 11.4799 8.23414 11.509 8.21531 11.5399C7.99829 11.8612 7.87597 12.2455 7.87598 12.6485L7.87622 19.3635C7.87622 19.3635 7.87622 19.3635 7.87622 19.3635C7.87623 20.1239 8.31156 20.817 8.99634 21.1472L15.1401 24.1097C15.6835 24.3716 16.3168 24.3717 16.8602 24.1097L23.004 21.1473C23.6888 20.817 24.1241 20.1238 24.1241 19.3635L24.1195 12.6495C24.1195 12.6495 24.1195 12.6496 24.1195 12.6495C24.1192 12.2547 24.0016 11.8779 23.7926 11.5608ZM22.6797 12.9531L16.7199 15.8244L16.72 22.5787L22.3785 19.8502C22.3785 19.8502 22.3785 19.8502 22.3785 19.8502C22.5652 19.7601 22.684 19.5712 22.6841 19.3638C22.6841 19.3637 22.6841 19.3636 22.6841 19.3635L22.6797 12.9531ZM15.28 22.5785L9.62189 19.8502C9.62187 19.8502 9.62191 19.8502 9.62189 19.8502C9.43498 19.76 9.31622 19.5709 9.31622 19.3635L9.31599 12.9485L15.2799 15.8243L15.28 22.5785Z" fill="#64A7FF"/>
</svg>
