<svg width="12" height="14" viewBox="0 0 12 14" fill="none" xmlns="http://www.w3.org/2000/svg">
<path d="M1.11762 2.15831C1.15919 1.59547 1.49337 1.11893 2.04235 0.989483C2.75196 0.821922 3.98347 0.642708 5.99987 0.642708C8.01626 0.642708 9.24777 0.822237 9.95738 0.989168C10.5064 1.11893 10.8405 1.59547 10.8821 2.15831C10.9514 3.09407 11.0393 4.82133 11.0393 7.57191C11.0393 9.75964 11.0072 11.1896 10.9665 12.1234C10.9234 13.1146 10.1561 13.4494 9.32683 12.9046L7.03673 11.4022C6.7287 11.2 6.3683 11.0923 5.99987 11.0923C5.63143 11.0923 5.27103 11.2 4.96301 11.4022L2.67322 12.9046C1.84361 13.4494 1.07636 13.1146 1.03321 12.1234C0.992261 11.1896 0.960449 9.75964 0.960449 7.57191C0.960449 4.82133 1.04801 3.09407 1.11762 2.15831Z" stroke="#666F8D" stroke-width="1.3" stroke-linecap="round" stroke-linejoin="round"/>
</svg>
