<svg width="16" height="16" viewBox="0 0 16 16" fill="none" xmlns="http://www.w3.org/2000/svg">
<path d="M1.19995 11.6482L3.77569 8.37168C4.50606 7.44257 5.90323 7.41218 6.67334 8.30866L8.93788 10.9447M6.9823 8.66835C7.95512 7.43094 9.31052 5.67781 9.39878 5.56375C9.40188 5.55967 9.40488 5.55581 9.40807 5.55177C10.1398 4.62866 11.5325 4.60037 12.3009 5.49484L14.5655 8.13092M3.07581 14.6964H12.9241C13.9601 14.6964 14.8 13.8566 14.8 12.8206V2.9723C14.8 1.93629 13.9601 1.09644 12.9241 1.09644H3.07581C2.0398 1.09644 1.19995 1.93629 1.19995 2.9723V12.8206C1.19995 13.8566 2.0398 14.6964 3.07581 14.6964Z" stroke="#666F8D" stroke-width="1.3" stroke-linecap="round" stroke-linejoin="round"/>
</svg>
