<svg width="16" height="17" viewBox="0 0 16 17" fill="none" xmlns="http://www.w3.org/2000/svg">
<path d="M8.00537 8.70321C8.03185 8.70301 8.05804 8.69758 8.08243 8.68725C8.10681 8.67692 8.12893 8.66189 8.14751 8.64302C8.16608 8.62414 8.18076 8.60179 8.1907 8.57724C8.20064 8.5527 8.20565 8.52643 8.20544 8.49995C8.20565 8.47346 8.20064 8.4472 8.1907 8.42265C8.18076 8.3981 8.16608 8.37575 8.14751 8.35687C8.12893 8.338 8.10681 8.32297 8.08243 8.31264C8.05804 8.30231 8.03185 8.29689 8.00537 8.29668" stroke="#19213D" stroke-width="1.3" stroke-linecap="round" stroke-linejoin="round"/>
<path d="M4.55615 8.69681C4.58222 8.6966 4.60798 8.69126 4.63198 8.68109C4.65598 8.67093 4.67774 8.65613 4.69602 8.63755C4.7143 8.61897 4.72875 8.59698 4.73853 8.57282C4.74831 8.54866 4.75323 8.52281 4.75302 8.49674C4.75323 8.47068 4.74831 8.44483 4.73853 8.42067C4.72875 8.39651 4.7143 8.37451 4.69602 8.35594C4.67774 8.33736 4.65598 8.32256 4.63198 8.31239C4.60798 8.30223 4.58222 8.29689 4.55615 8.29668" stroke="#19213D" stroke-width="1.3" stroke-linecap="round" stroke-linejoin="round"/>
<path d="M11.4492 8.69681C11.4753 8.6966 11.501 8.69126 11.525 8.68109C11.549 8.67093 11.5708 8.65613 11.5891 8.63755C11.6074 8.61897 11.6218 8.59698 11.6316 8.57282C11.6414 8.54866 11.6463 8.52281 11.6461 8.49674C11.6463 8.47068 11.6414 8.44483 11.6316 8.42067C11.6218 8.39651 11.6074 8.37451 11.5891 8.35594C11.5708 8.33736 11.549 8.32256 11.525 8.31239C11.501 8.30223 11.4753 8.29689 11.4492 8.29668" stroke="#19213D" stroke-width="1.3" stroke-linecap="round" stroke-linejoin="round"/>
<path d="M8.00252 1.29755C6.69276 1.29799 5.40782 1.65502 4.28558 2.33034C3.16333 3.00566 2.24612 3.97379 1.63236 5.13085C1.02061 6.2876 0.736771 7.5896 0.811528 8.89601C0.886285 10.2024 1.3168 11.4635 2.0565 12.543L0.800078 15.7024L4.16122 14.5693C5.10584 15.1618 6.17499 15.5272 7.28467 15.6368C8.39435 15.7464 9.51433 15.5972 10.5566 15.2009C11.5989 14.8046 12.5351 14.1721 13.2917 13.3529C14.0482 12.5337 14.6045 11.5503 14.9169 10.4799C15.2267 9.4097 15.283 8.28208 15.0813 7.18638C14.8796 6.09069 14.4255 5.05702 13.7549 4.16732C13.084 3.27598 12.2151 2.55276 11.2168 2.05473C10.2185 1.55669 9.11815 1.29748 8.00252 1.29755Z" stroke="#19213D" stroke-width="1.4" stroke-linecap="round" stroke-linejoin="round"/>
</svg>
