<svg width="18" height="17" viewBox="0 0 18 17" fill="none" xmlns="http://www.w3.org/2000/svg">
<path d="M8.99984 10.5C10.1044 10.5 10.9998 9.60457 10.9998 8.5C10.9998 7.39544 10.1044 6.5 8.99984 6.5C7.89527 6.5 6.99984 7.39544 6.99984 8.5C6.99984 9.60457 7.89527 10.5 8.99984 10.5Z" stroke="#303030" stroke-width="1.4" stroke-linecap="round" stroke-linejoin="round"/>
<path d="M13.9332 10.5C13.8444 10.7011 13.818 10.9241 13.8572 11.1404C13.8964 11.3567 13.9995 11.5562 14.1532 11.7133L14.1932 11.7533C14.3171 11.8772 14.4155 12.0242 14.4826 12.1861C14.5497 12.3479 14.5842 12.5215 14.5842 12.6967C14.5842 12.8719 14.5497 13.0454 14.4826 13.2073C14.4155 13.3691 14.3171 13.5162 14.1932 13.64C14.0693 13.764 13.9223 13.8623 13.7604 13.9294C13.5986 13.9965 13.4251 14.0311 13.2498 14.0311C13.0746 14.0311 12.9011 13.9965 12.7392 13.9294C12.5774 13.8623 12.4303 13.764 12.3065 13.64L12.2665 13.6C12.1094 13.4463 11.9098 13.3432 11.6936 13.304C11.4773 13.2648 11.2542 13.2913 11.0532 13.38C10.856 13.4645 10.6878 13.6048 10.5694 13.7837C10.4509 13.9626 10.3874 14.1721 10.3865 14.3867V14.5C10.3865 14.8536 10.246 15.1928 9.99598 15.4428C9.74593 15.6929 9.40679 15.8333 9.05317 15.8333C8.69955 15.8333 8.36041 15.6929 8.11036 15.4428C7.86031 15.1928 7.71984 14.8536 7.71984 14.5V14.44C7.71468 14.2193 7.64325 14.0053 7.51484 13.8258C7.38644 13.6463 7.20699 13.5095 6.99984 13.4333C6.79876 13.3446 6.57571 13.3181 6.35944 13.3573C6.14318 13.3965 5.94362 13.4996 5.7865 13.6533L5.7465 13.6933C5.62267 13.8173 5.47562 13.9157 5.31376 13.9828C5.15189 14.0498 4.97839 14.0844 4.80317 14.0844C4.62795 14.0844 4.45445 14.0498 4.29258 13.9828C4.13072 13.9157 3.98367 13.8173 3.85984 13.6933C3.73587 13.5695 3.63752 13.4225 3.57042 13.2606C3.50333 13.0987 3.46879 12.9252 3.46879 12.75C3.46879 12.5748 3.50333 12.4013 3.57042 12.2394C3.63752 12.0776 3.73587 11.9305 3.85984 11.8067L3.89984 11.7667C4.05353 11.6096 4.15663 11.41 4.19584 11.1937C4.23505 10.9775 4.20858 10.7544 4.11984 10.5533C4.03533 10.3562 3.89501 10.188 3.71615 10.0695C3.53729 9.95109 3.32769 9.88753 3.11317 9.88667H2.99984C2.64622 9.88667 2.30708 9.7462 2.05703 9.49615C1.80698 9.2461 1.6665 8.90696 1.6665 8.55334C1.6665 8.19972 1.80698 7.86058 2.05703 7.61053C2.30708 7.36048 2.64622 7.22 2.99984 7.22H3.05984C3.2805 7.21484 3.49451 7.14342 3.67404 7.01501C3.85357 6.88661 3.99031 6.70716 4.0665 6.5C4.15525 6.29893 4.18172 6.07588 4.14251 5.85961C4.10329 5.64335 4.00019 5.44379 3.8465 5.28667L3.8065 5.24667C3.68254 5.12284 3.58419 4.97579 3.51709 4.81393C3.44999 4.65206 3.41545 4.47856 3.41545 4.30334C3.41545 4.12812 3.44999 3.95462 3.51709 3.79275C3.58419 3.63089 3.68254 3.48384 3.8065 3.36C3.93033 3.23604 4.07739 3.13769 4.23925 3.07059C4.40111 3.00349 4.57462 2.96896 4.74984 2.96896C4.92506 2.96896 5.09856 3.00349 5.26042 3.07059C5.42229 3.13769 5.56934 3.23604 5.69317 3.36L5.73317 3.4C5.89029 3.5537 6.08985 3.6568 6.30611 3.69601C6.52237 3.73522 6.74543 3.70875 6.9465 3.62H6.99984C7.19702 3.5355 7.36518 3.39518 7.48363 3.21632C7.60208 3.03746 7.66565 2.82786 7.6665 2.61334V2.50001C7.6665 2.14638 7.80698 1.80724 8.05703 1.5572C8.30708 1.30715 8.64621 1.16667 8.99984 1.16667C9.35346 1.16667 9.6926 1.30715 9.94265 1.5572C10.1927 1.80724 10.3332 2.14638 10.3332 2.50001V2.56C10.334 2.77453 10.3976 2.98412 10.516 3.16298C10.6345 3.34184 10.8027 3.48216 10.9998 3.56667C11.2009 3.65541 11.424 3.68189 11.6402 3.64267C11.8565 3.60346 12.0561 3.50036 12.2132 3.34667L12.2532 3.30667C12.377 3.1827 12.5241 3.08436 12.6859 3.01726C12.8478 2.95016 13.0213 2.91562 13.1965 2.91562C13.3717 2.91562 13.5452 2.95016 13.7071 3.01726C13.869 3.08436 14.016 3.1827 14.1398 3.30667C14.2638 3.4305 14.3622 3.57755 14.4292 3.73942C14.4963 3.90128 14.5309 4.07478 14.5309 4.25C14.5309 4.42523 14.4963 4.59873 14.4292 4.76059C14.3622 4.92246 14.2638 5.06951 14.1398 5.19334L14.0998 5.23334C13.9461 5.39046 13.843 5.59002 13.8038 5.80628C13.7646 6.02254 13.7911 6.24559 13.8798 6.44667V6.5C13.9643 6.69718 14.1047 6.86535 14.2835 6.9838C14.4624 7.10225 14.672 7.16582 14.8865 7.16667H14.9998C15.3535 7.16667 15.6926 7.30715 15.9426 7.5572C16.1927 7.80724 16.3332 8.14638 16.3332 8.5C16.3332 8.85363 16.1927 9.19276 15.9426 9.44281C15.6926 9.69286 15.3535 9.83334 14.9998 9.83334H14.9398C14.7253 9.83419 14.5157 9.89776 14.3369 10.0162C14.158 10.1347 14.0177 10.3028 13.9332 10.5Z" stroke="#303030" stroke-width="1.4" stroke-linecap="round" stroke-linejoin="round"/>
</svg>
