<svg width="14" height="14" viewBox="0 0 14 14" fill="none" xmlns="http://www.w3.org/2000/svg">
<path d="M9.05174 10.2828L4.53795 8.23104M9.05174 4.12759L4.53795 6.17932M12.9499 2.89655C12.9499 3.91637 12.1232 4.7431 11.1034 4.7431C10.0836 4.7431 9.25684 3.91637 9.25684 2.89655C9.25684 1.87673 10.0836 1.05 11.1034 1.05C12.1232 1.05 12.9499 1.87673 12.9499 2.89655ZM4.74291 7.00001C4.74291 8.0198 3.91618 8.84656 2.89636 8.84656C1.87653 8.84656 1.0498 8.0198 1.0498 7.00001C1.0498 5.98022 1.87653 5.15346 2.89636 5.15346C3.91618 5.15346 4.74291 5.98022 4.74291 7.00001ZM12.9499 11.1034C12.9499 12.1232 12.1232 12.95 11.1034 12.95C10.0836 12.95 9.25684 12.1232 9.25684 11.1034C9.25684 10.0836 10.0836 9.25689 11.1034 9.25689C12.1232 9.25689 12.9499 10.0836 12.9499 11.1034Z" stroke="#666F8D" stroke-width="1.3" stroke-linecap="round" stroke-linejoin="round"/>
</svg>
