<svg width="18" height="18" viewBox="0 0 18 18" fill="none" xmlns="http://www.w3.org/2000/svg">
<path fill-rule="evenodd" clip-rule="evenodd" d="M8.76408 2.1878C8.76408 2.1878 8.76408 2.1878 8.76408 2.1878L3.3093 4.82883L8.99999 7.57283L14.6889 4.83202L9.23522 2.18793C9.08647 2.11582 8.91287 2.11577 8.76408 2.1878ZM16.7926 4.56085C16.7684 4.51848 16.7404 4.47941 16.7093 4.44387C16.5252 4.20433 16.2855 4.00573 16.0031 3.86887L9.86344 0.892195C9.86343 0.892193 9.86344 0.892197 9.86344 0.892195C9.3182 0.627845 8.68194 0.627676 8.13657 0.891718L1.9933 3.86609C1.9933 3.86609 1.9933 3.86609 1.9933 3.86609C1.70619 4.0051 1.46309 4.20793 1.27771 4.45273C1.25503 4.47988 1.23414 4.50898 1.21531 4.53994C0.998291 4.86123 0.875966 5.24545 0.875977 5.64851L0.876216 12.3635C0.876216 12.3635 0.876216 12.3635 0.876216 12.3635C0.876226 13.1239 1.31156 13.817 1.99634 14.1472L8.14009 17.1097C8.68352 17.3716 9.3168 17.3717 9.86023 17.1097L16.004 14.1473C16.6888 13.817 17.1241 13.1238 17.1241 12.3635L17.1195 5.64953C17.1195 5.64948 17.1195 5.64957 17.1195 5.64953C17.1192 5.25472 17.0016 4.87793 16.7926 4.56085ZM15.6797 5.9531L9.71987 8.82442L9.71998 15.5787L15.3785 12.8502C15.3785 12.8502 15.3785 12.8502 15.3785 12.8502C15.5652 12.7601 15.684 12.5712 15.6841 12.3638C15.6841 12.3637 15.6841 12.3636 15.6841 12.3635L15.6797 5.9531ZM8.27998 15.5785L2.62189 12.8502C2.62187 12.8502 2.62191 12.8502 2.62189 12.8502C2.43498 12.76 2.31622 12.5709 2.31622 12.3635L2.31599 5.94853L8.27987 8.82426L8.27998 15.5785Z" fill="#64A7FF"/>
</svg>
